<?xml version="1.0" encoding="UTF-8" standalone="no"?>
<!-- Created with Inkscape (http://www.inkscape.org/) -->
<svg
   xmlns:dc="http://purl.org/dc/elements/1.1/"
   xmlns:cc="http://creativecommons.org/ns#"
   xmlns:rdf="http://www.w3.org/1999/02/22-rdf-syntax-ns#"
   xmlns:svg="http://www.w3.org/2000/svg"
   xmlns="http://www.w3.org/2000/svg"
   xmlns:xlink="http://www.w3.org/1999/xlink"
   xmlns:sodipodi="http://sodipodi.sourceforge.net/DTD/sodipodi-0.dtd"
   xmlns:inkscape="http://www.inkscape.org/namespaces/inkscape"
   width="35.433071"
   height="48.100555"
   id="svg6182"
   sodipodi:version="0.32"
   inkscape:version="0.46"
   version="1.0"
   sodipodi:docname="leftarrow.svg"
   inkscape:output_extension="org.inkscape.output.svg.inkscape">
  <defs
     id="defs6184">
    <linearGradient
       inkscape:collect="always"
       id="linearGradient6197">
      <stop
         style="stop-color:#00ff00;stop-opacity:1;"
         offset="0"
         id="stop6199" />
      <stop
         style="stop-color:#00ff00;stop-opacity:0;"
         offset="1"
         id="stop6201" />
    </linearGradient>
    <inkscape:perspective
       sodipodi:type="inkscape:persp3d"
       inkscape:vp_x="0 : 526.18109 : 1"
       inkscape:vp_y="0 : 1000 : 0"
       inkscape:vp_z="744.09448 : 526.18109 : 1"
       inkscape:persp3d-origin="372.04724 : 350.78739 : 1"
       id="perspective6190" />
    <radialGradient
       inkscape:collect="always"
       xlink:href="#linearGradient6197"
       id="radialGradient6203"
       cx="288.87451"
       cy="284.21545"
       fx="288.87451"
       fy="284.21545"
       r="86.007607"
       gradientTransform="matrix(0.2058883,0,7.0634431e-8,0.2080959,8.8612474,4.303405)"
       gradientUnits="userSpaceOnUse" />
  </defs>
  <sodipodi:namedview
     id="base"
     pagecolor="#ffffff"
     bordercolor="#666666"
     borderopacity="1.0"
     inkscape:pageopacity="0.0"
     inkscape:pageshadow="2"
     inkscape:zoom="6.0687714"
     inkscape:cx="57.314792"
     inkscape:cy="39.957372"
     inkscape:document-units="px"
     inkscape:current-layer="layer3"
     showgrid="false"
     inkscape:window-width="1280"
     inkscape:window-height="964"
     inkscape:window-x="1276"
     inkscape:window-y="-5" />
  <metadata
     id="metadata6187">
    <rdf:RDF>
      <cc:Work
         rdf:about="">
        <dc:format>image/svg+xml</dc:format>
        <dc:type
           rdf:resource="http://purl.org/dc/dcmitype/StillImage" />
      </cc:Work>
    </rdf:RDF>
  </metadata>
  <g
     inkscape:label="Ebene 1"
     inkscape:groupmode="layer"
     id="layer1"
     transform="translate(-271.48103,-345.94909)" />
  <g
     inkscape:groupmode="layer"
     id="layer3"
     inkscape:label="lol"
     transform="translate(-68.291075,-39.306862)">
    <path
       id="path6192"
       style="fill:url(#radialGradient6203);fill-opacity:1;fill-rule:evenodd;stroke:#000000;stroke-width:0.27962965px;stroke-linecap:butt;stroke-linejoin:miter;stroke-opacity:1"
       d="M 93.108226,63.35714 C 93.108226,63.35714 93.108226,63.491966 93.198088,61.018108 L 93.198088,61.018108 C 93.198088,61.018108 93.198088,61.018108 103.58433,39.446677 C 103.58433,39.446677 103.58433,39.446677 82.811843,61.817049 L 93.198088,41.044559 L 93.198088,41.044559 C 93.198088,41.044559 93.198088,41.044559 68.43089,63.35714 C 93.198088,85.669721 93.198088,85.669721 93.198088,85.669721 L 93.198088,85.669721 L 82.811843,64.897231 C 103.58433,87.267603 103.58433,87.267603 103.58433,87.267603 C 93.198088,65.696172 93.198088,65.696172 93.198088,65.696172 L 93.198088,65.696172 C 93.108226,63.222314 93.108226,63.35714 93.108226,63.35714 z"
       sodipodi:nodetypes="ccccccccccccccc"
       inkscape:export-filename="/home/looki/Programme/The Wheat Snooper linux 64bit/qss/quake4/rightarrow.png"
       inkscape:export-xdpi="20"
       inkscape:export-ydpi="20" />
    <path
       style="opacity:1;fill:#00ff00;fill-opacity:1;fill-rule:evenodd;stroke:none;stroke-width:1;stroke-linecap:butt;stroke-linejoin:miter;stroke-miterlimit:4;stroke-dasharray:none;stroke-dashoffset:0;stroke-opacity:1"
       d="M 94.432575,77.165406 C 89.795545,72.172743 85.896013,67.970044 85.766946,67.826075 L 85.532279,67.564314 L 85.657218,66.942277 C 85.909976,65.683872 85.955488,65.160129 85.955513,63.509555 C 85.955527,62.53843 85.933846,61.814208 85.895509,61.505213 C 85.816207,60.86605 85.670718,60.005566 85.565694,59.554529 L 85.481022,59.1909 L 93.979412,50.038369 C 100.4501,43.069624 102.50604,40.882245 102.59615,40.870775 C 102.66124,40.862489 102.70706,40.875396 102.69796,40.899456 C 102.68886,40.923516 100.51119,45.45043 97.858684,50.959266 L 93.03595,60.97533 L 92.988858,62.159169 C 92.956082,62.982935 92.956782,63.710311 92.991148,64.550632 L 93.040539,65.758257 L 97.96621,75.986445 C 100.67533,81.611948 102.8855,86.221011 102.87771,86.228804 C 102.86991,86.2366 99.0696,82.15807 94.432572,77.165406 L 94.432575,77.165406 z"
       id="path6308"
       inkscape:export-filename="/home/looki/Programme/The Wheat Snooper linux 64bit/qss/quake4/rightarrow.png"
       inkscape:export-xdpi="20"
       inkscape:export-ydpi="20" />
  </g>
</svg>
