<?xml version="1.0" encoding="UTF-8" standalone="no"?>
<!-- Created with Inkscape (http://www.inkscape.org/) -->
<svg
   xmlns:dc="http://purl.org/dc/elements/1.1/"
   xmlns:cc="http://creativecommons.org/ns#"
   xmlns:rdf="http://www.w3.org/1999/02/22-rdf-syntax-ns#"
   xmlns:svg="http://www.w3.org/2000/svg"
   xmlns="http://www.w3.org/2000/svg"
   xmlns:xlink="http://www.w3.org/1999/xlink"
   xmlns:sodipodi="http://sodipodi.sourceforge.net/DTD/sodipodi-0.dtd"
   xmlns:inkscape="http://www.inkscape.org/namespaces/inkscape"
   width="35.433067"
   height="26.10162"
   id="svg6182"
   sodipodi:version="0.32"
   inkscape:version="0.46"
   version="1.0"
   sodipodi:docname="uparrow.svg"
   inkscape:output_extension="org.inkscape.output.svg.inkscape"
   inkscape:export-filename="/home/looki/development/workspace/netcoupler/qss/quake4/uparrow.png"
   inkscape:export-xdpi="20.597521"
   inkscape:export-ydpi="20.597521">
  <defs
     id="defs6184">
    <linearGradient
       inkscape:collect="always"
       id="linearGradient6197">
      <stop
         style="stop-color:#00ff00;stop-opacity:1;"
         offset="0"
         id="stop6199" />
      <stop
         style="stop-color:#00ff00;stop-opacity:0;"
         offset="1"
         id="stop6201" />
    </linearGradient>
    <inkscape:perspective
       sodipodi:type="inkscape:persp3d"
       inkscape:vp_x="0 : 526.18109 : 1"
       inkscape:vp_y="0 : 1000 : 0"
       inkscape:vp_z="744.09448 : 526.18109 : 1"
       inkscape:persp3d-origin="372.04724 : 350.78739 : 1"
       id="perspective6190" />
    <radialGradient
       inkscape:collect="always"
       xlink:href="#linearGradient6197"
       id="radialGradient6203"
       cx="288.87451"
       cy="284.21545"
       fx="288.87451"
       fy="284.21545"
       r="86.007607"
       gradientTransform="matrix(0,0.1516667,-0.1532929,5.2032546e-8,129.50929,6.5276081)"
       gradientUnits="userSpaceOnUse" />
  </defs>
  <sodipodi:namedview
     id="base"
     pagecolor="#ffffff"
     bordercolor="#666666"
     borderopacity="1.0"
     inkscape:pageopacity="0.0"
     inkscape:pageshadow="2"
     inkscape:zoom="6.0687715"
     inkscape:cx="72.466417"
     inkscape:cy="39.957372"
     inkscape:document-units="px"
     inkscape:current-layer="layer3"
     showgrid="false"
     inkscape:window-width="1280"
     inkscape:window-height="964"
     inkscape:window-x="1276"
     inkscape:window-y="-5" />
  <metadata
     id="metadata6187">
    <rdf:RDF>
      <cc:Work
         rdf:about="">
        <dc:format>image/svg+xml</dc:format>
        <dc:type
           rdf:resource="http://purl.org/dc/dcmitype/StillImage" />
      </cc:Work>
    </rdf:RDF>
  </metadata>
  <g
     inkscape:label="Ebene 1"
     inkscape:groupmode="layer"
     id="layer1"
     transform="translate(-271.48103,-356.94856)" />
  <g
     inkscape:groupmode="layer"
     id="layer3"
     inkscape:label="lol"
     transform="translate(-68.291075,-50.30633)">
    <path
       id="path6192"
       style="fill:url(#radialGradient6203);fill-opacity:1;fill-rule:evenodd;stroke:#000000;stroke-width:0.20598799px;stroke-linecap:butt;stroke-linejoin:miter;stroke-opacity:1"
       d="M 86.00761,68.587779 C 86.00761,68.587779 85.908291,68.587779 87.730648,68.653975 L 87.730648,68.653975 C 87.730648,68.653975 87.730648,68.653975 103.62115,76.304956 C 103.62115,76.304956 103.62115,76.304956 87.142112,61.002992 L 102.44408,68.653975 L 102.44408,68.653975 C 102.44408,68.653975 102.44408,68.653975 86.00761,50.409324 C 69.571142,68.653975 69.571142,68.653975 69.571142,68.653975 L 69.571142,68.653975 L 84.873108,61.002992 C 68.394069,76.304956 68.394069,76.304956 68.394069,76.304956 C 84.284572,68.653975 84.284572,68.653975 84.284572,68.653975 L 84.284572,68.653975 C 86.106929,68.587779 86.00761,68.587779 86.00761,68.587779 z"
       sodipodi:nodetypes="ccccccccccccccc" />
    <path
       style="opacity:1;fill:#00ff00;fill-opacity:1;fill-rule:evenodd;stroke:none;stroke-width:1;stroke-linecap:butt;stroke-linejoin:miter;stroke-miterlimit:4;stroke-dasharray:none;stroke-dashoffset:0;stroke-opacity:1"
       d="M 95.305298,72.168509 L 87.773665,68.53673 L 86.88303,68.501615 C 86.264399,68.477225 85.724274,68.477422 85.114475,68.50226 L 84.236555,68.53802 L 76.72241,72.157001 C 72.589629,74.14744 69.201614,75.769332 69.193485,75.761203 C 69.185358,75.753073 72.266754,72.878807 76.041034,69.373942 L 82.903361,63.00146 L 83.366303,63.091766 C 85.165375,63.442712 86.94515,63.433625 88.682333,63.064623 L 89.088978,62.978246 L 89.242382,63.125732 C 89.326752,63.206849 92.397129,66.057303 96.065443,69.460074 C 103.65462,76.499883 102.91299,75.808486 102.8701,75.803862 C 102.85186,75.801896 99.447694,74.165987 95.305298,72.168509 L 95.305298,72.168509 z"
       id="path6330" />
  </g>
</svg>
