<?xml version="1.0" encoding="UTF-8" standalone="no"?>
<!-- Created with Inkscape (http://www.inkscape.org/) -->
<svg
   xmlns:dc="http://purl.org/dc/elements/1.1/"
   xmlns:cc="http://creativecommons.org/ns#"
   xmlns:rdf="http://www.w3.org/1999/02/22-rdf-syntax-ns#"
   xmlns:svg="http://www.w3.org/2000/svg"
   xmlns="http://www.w3.org/2000/svg"
   xmlns:xlink="http://www.w3.org/1999/xlink"
   xmlns:sodipodi="http://sodipodi.sourceforge.net/DTD/sodipodi-0.dtd"
   xmlns:inkscape="http://www.inkscape.org/namespaces/inkscape"
   width="806.03937"
   height="65.131546"
   id="svg2"
   sodipodi:version="0.32"
   inkscape:version="0.46"
   sodipodi:docname="pressedbutton.svg"
   inkscape:output_extension="org.inkscape.output.svg.inkscape"
   version="1.0"
   inkscape:export-filename="/home/looki/trash/ll.png"
   inkscape:export-xdpi="216.00912"
   inkscape:export-ydpi="216.00912">
  <sodipodi:namedview
     id="base"
     pagecolor="#ffffff"
     bordercolor="#666666"
     borderopacity="1.0"
     inkscape:pageopacity="0.0"
     inkscape:pageshadow="2"
     inkscape:zoom="1.1910089"
     inkscape:cx="393.67027"
     inkscape:cy="32.56577"
     inkscape:document-units="px"
     inkscape:current-layer="layer1"
     showgrid="false"
     inkscape:window-width="1280"
     inkscape:window-height="964"
     inkscape:window-x="-4"
     inkscape:window-y="-5"
     showguides="true"
     inkscape:guide-bbox="true" />
  <defs
     id="defs4">
    <linearGradient
       inkscape:collect="always"
       id="linearGradient6040">
      <stop
         style="stop-color:#00ff00;stop-opacity:1;"
         offset="0"
         id="stop6042" />
      <stop
         style="stop-color:#00ff00;stop-opacity:0;"
         offset="1"
         id="stop6044" />
    </linearGradient>
    <inkscape:perspective
       id="perspective10"
       inkscape:persp3d-origin="372.04724 : 350.78739 : 1"
       inkscape:vp_z="744.09448 : 526.18109 : 1"
       inkscape:vp_y="0 : 1000 : 0"
       inkscape:vp_x="0 : 526.18109 : 1"
       sodipodi:type="inkscape:persp3d" />
    <radialGradient
       inkscape:collect="always"
       xlink:href="#linearGradient6040"
       id="radialGradient7088"
       gradientUnits="userSpaceOnUse"
       gradientTransform="matrix(1,0,0,8.4407642e-2,232.61162,388.02475)"
       cx="392.13904"
       cy="-135.6333"
       fx="392.13904"
       fy="-135.6333"
       r="346.59555" />
  </defs>
  <metadata
     id="metadata7">
    <rdf:RDF>
      <cc:Work
         rdf:about="">
        <dc:format>image/svg+xml</dc:format>
        <dc:type
           rdf:resource="http://purl.org/dc/dcmitype/StillImage" />
      </cc:Work>
    </rdf:RDF>
  </metadata>
  <g
     transform="translate(-223.36695,-343.72712)"
     id="layer1"
     inkscape:groupmode="layer"
     inkscape:label="Ebene 1"
     style="display:inline">
    <path
       id="path3762"
       style="fill:#55d400;fill-opacity:1;fill-rule:evenodd;stroke:#000000;stroke-width:1.3440125px;stroke-linecap:butt;stroke-linejoin:miter;stroke-opacity:1"
       d="M 963.47102,408.18666 C 963.47102,408.18666 1054.6153,343.91862 624.20869,344.40184 C 193.80199,344.88506 283.15028,408.18666 283.15028,408.18666 M 263.24459,344.40184 L 985.17274,344.40184 C 1041.2925,344.40184 1045.1845,408.18666 985.17274,408.18666 L 265.17746,408.18666 C 217.73259,406.25379 214.82019,344.40184 263.24459,344.40184 z"
       sodipodi:nodetypes="cscccccc" />
    <path
       sodipodi:nodetypes="cscccccc"
       d="M 963.12732,344.40087 C 963.12732,344.40087 1054.7492,408.6654 622.0872,408.18221 C 189.42515,407.69902 279.24163,344.40087 279.24163,344.40087 M 259.23163,408.18221 L 984.94274,408.18221 C 1041.3566,408.18221 1045.269,344.40087 984.94274,344.40087 L 261.17463,344.40087 C 213.48114,346.33363 210.55348,408.18221 259.23163,408.18221 z"
       style="fill:#55d400;fill-opacity:1;fill-rule:evenodd;stroke:#000000;stroke-width:1.34749246px;stroke-linecap:butt;stroke-linejoin:miter;stroke-opacity:1"
       id="path6576"
       inkscape:export-filename="/home/looki/development/workspace/netcoupler/qss/quake4/pressedbutton.png"
       inkscape:export-xdpi="33.163654"
       inkscape:export-ydpi="33.163654" />
    <path
       style="opacity:1;fill:#00ff00;fill-opacity:1;fill-rule:evenodd;stroke:#000000;stroke-width:0.83962429;stroke-linecap:butt;stroke-linejoin:miter;stroke-miterlimit:4;stroke-dasharray:none;stroke-dashoffset:0;stroke-opacity:1"
       d="M 350.84944,62.968345 C 229.86565,61.340633 139.55052,53.592025 92.245154,40.781315 C 84.425003,38.663531 71.345537,34.342027 70.534074,33.607868 C 69.565425,32.731468 87.99574,26.331364 100.6414,23.15279 C 157.23424,8.9277665 255.13212,2.1658271 404.16558,2.1879092 C 551.31633,2.2096974 645.31902,8.7303372 701.09241,22.78464 C 709.76984,24.971232 722.47008,29.244592 726.58046,31.360806 L 729.0985,32.657211 L 725.32103,34.281423 C 691.24832,48.931909 616.89069,58.269866 506.59974,61.748824 C 478.57638,62.632772 382.07247,63.388384 350.84944,62.96832 L 350.84944,62.968345 z"
       id="path7124"
       transform="translate(223.36695,343.72712)" />
  </g>
  <g
     inkscape:groupmode="layer"
     id="layer2"
     inkscape:label="lol"
     transform="translate(7.9852269,168.48244)" />
</svg>
