<?xml version="1.0" encoding="UTF-8" standalone="no"?>
<!-- Created with Inkscape (http://www.inkscape.org/) -->
<svg
   xmlns:dc="http://purl.org/dc/elements/1.1/"
   xmlns:cc="http://creativecommons.org/ns#"
   xmlns:rdf="http://www.w3.org/1999/02/22-rdf-syntax-ns#"
   xmlns:svg="http://www.w3.org/2000/svg"
   xmlns="http://www.w3.org/2000/svg"
   xmlns:xlink="http://www.w3.org/1999/xlink"
   xmlns:sodipodi="http://sodipodi.sourceforge.net/DTD/sodipodi-0.dtd"
   xmlns:inkscape="http://www.inkscape.org/namespaces/inkscape"
   width="171.46243"
   height="25.590069"
   id="svg6182"
   sodipodi:version="0.32"
   inkscape:version="0.46"
   version="1.0"
   sodipodi:docname="downarrow.svg"
   inkscape:output_extension="org.inkscape.output.svg.inkscape">
  <defs
     id="defs6184">
    <linearGradient
       inkscape:collect="always"
       id="linearGradient6197">
      <stop
         style="stop-color:#00ff00;stop-opacity:1;"
         offset="0"
         id="stop6199" />
      <stop
         style="stop-color:#00ff00;stop-opacity:0;"
         offset="1"
         id="stop6201" />
    </linearGradient>
    <inkscape:perspective
       sodipodi:type="inkscape:persp3d"
       inkscape:vp_x="0 : 526.18109 : 1"
       inkscape:vp_y="0 : 1000 : 0"
       inkscape:vp_z="744.09448 : 526.18109 : 1"
       inkscape:persp3d-origin="372.04724 : 350.78739 : 1"
       id="perspective6190" />
    <radialGradient
       inkscape:collect="always"
       xlink:href="#linearGradient6197"
       id="radialGradient6203"
       cx="288.87451"
       cy="284.21545"
       fx="288.87451"
       fy="284.21545"
       r="86.007607"
       gradientTransform="matrix(0,-0.1472578,-0.7441838,-5.0519978e-8,295.50363,118.53467)"
       gradientUnits="userSpaceOnUse" />
  </defs>
  <sodipodi:namedview
     id="base"
     pagecolor="#ffffff"
     bordercolor="#666666"
     borderopacity="1.0"
     inkscape:pageopacity="0.0"
     inkscape:pageshadow="2"
     inkscape:zoom="4.2912694"
     inkscape:cx="115.2319"
     inkscape:cy="31.142161"
     inkscape:document-units="px"
     inkscape:current-layer="layer3"
     showgrid="false"
     inkscape:window-width="1280"
     inkscape:window-height="960"
     inkscape:window-x="0"
     inkscape:window-y="0"
     units="cm" />
  <metadata
     id="metadata6187">
    <rdf:RDF>
      <cc:Work
         rdf:about="">
        <dc:format>image/svg+xml</dc:format>
        <dc:type
           rdf:resource="http://purl.org/dc/dcmitype/StillImage" />
      </cc:Work>
    </rdf:RDF>
  </metadata>
  <g
     inkscape:label="Ebene 1"
     inkscape:groupmode="layer"
     id="layer1"
     transform="translate(-201.77687,-357.20434)">
    <path
       style="opacity:1;fill:#00ff00;fill-opacity:1;fill-rule:evenodd;stroke:none;stroke-width:1;stroke-linecap:butt;stroke-linejoin:miter;stroke-miterlimit:4;stroke-dasharray:none;stroke-dashoffset:0;stroke-opacity:1"
       d="M 206.43244,358.03282 C 206.89873,358.12614 267.80415,369.43406 272.27133,370.25671 L 272.69335,370.33443 L 274.30543,370.2671 C 279.23693,370.06114 283.40939,369.98951 289.03242,370.01429 C 293.63947,370.03459 296.6468,370.09952 300.46808,370.26119 L 302.66386,370.35409 L 336.13186,364.14017 C 354.53926,360.72251 369.58082,357.92164 369.55757,357.91601 C 369.53432,357.91038 353.02755,359.4928 332.87586,361.43248 L 296.23645,364.95918 L 292,364.99424 C 288.94614,365.01951 286.55738,365.01903 283.44254,364.99252 L 279.12151,364.95574 L 242.69458,361.44646 C 222.65978,359.51636 206.15644,357.92902 206.0205,357.91905 C 205.88455,357.90907 206.06993,357.96027 206.43244,358.03282 L 206.43244,358.03282 z"
       id="path6227" />
  </g>
  <g
     inkscape:groupmode="layer"
     id="layer3"
     inkscape:label="lol"
     transform="translate(1.4130836,-50.562106)">
    <path
       id="path6192"
       style="fill:url(#radialGradient6203);fill-opacity:1;fill-rule:evenodd;stroke:#000000;stroke-width:0.44721359px;stroke-linecap:butt;stroke-linejoin:miter;stroke-opacity:1"
       d="M 84.318133,58.278555 C 84.318133,58.278555 83.835973,58.278555 92.682883,58.214283 L 92.682883,58.214283 C 92.682883,58.214283 92.682883,58.214283 169.82574,50.785713 C 169.82574,50.785713 169.82574,50.785713 89.825743,65.642855 L 164.11146,58.214283 L 164.11146,58.214283 C 164.11146,58.214283 164.11146,58.214283 84.318133,75.928569 C 4.5248032,58.214283 4.5248032,58.214283 4.5248032,58.214283 L 4.5248032,58.214283 L 78.810523,65.642855 C -1.1894768,50.785713 -1.1894768,50.785713 -1.1894768,50.785713 C 75.953383,58.214283 75.953383,58.214283 75.953383,58.214283 L 75.953383,58.214283 C 84.800293,58.278555 84.318133,58.278555 84.318133,58.278555 z"
       sodipodi:nodetypes="ccccccccccccccc" />
  </g>
</svg>
