<?xml version="1.0" encoding="UTF-8" standalone="no"?>
<!-- Created with Inkscape (http://www.inkscape.org/) -->
<svg
   xmlns:dc="http://purl.org/dc/elements/1.1/"
   xmlns:cc="http://creativecommons.org/ns#"
   xmlns:rdf="http://www.w3.org/1999/02/22-rdf-syntax-ns#"
   xmlns:svg="http://www.w3.org/2000/svg"
   xmlns="http://www.w3.org/2000/svg"
   xmlns:xlink="http://www.w3.org/1999/xlink"
   xmlns:sodipodi="http://sodipodi.sourceforge.net/DTD/sodipodi-0.dtd"
   xmlns:inkscape="http://www.inkscape.org/namespaces/inkscape"
   width="35.433071"
   height="48.100555"
   id="svg6182"
   sodipodi:version="0.32"
   inkscape:version="0.46"
   version="1.0"
   sodipodi:docname="rightarrow.svg"
   inkscape:output_extension="org.inkscape.output.svg.inkscape">
  <defs
     id="defs6184">
    <linearGradient
       inkscape:collect="always"
       id="linearGradient6197">
      <stop
         style="stop-color:#00ff00;stop-opacity:1;"
         offset="0"
         id="stop6199" />
      <stop
         style="stop-color:#00ff00;stop-opacity:0;"
         offset="1"
         id="stop6201" />
    </linearGradient>
    <inkscape:perspective
       sodipodi:type="inkscape:persp3d"
       inkscape:vp_x="0 : 526.18109 : 1"
       inkscape:vp_y="0 : 1000 : 0"
       inkscape:vp_z="744.09448 : 526.18109 : 1"
       inkscape:persp3d-origin="372.04724 : 350.78739 : 1"
       id="perspective6190" />
    <radialGradient
       inkscape:collect="always"
       xlink:href="#linearGradient6197"
       id="radialGradient6203"
       cx="288.87451"
       cy="284.21545"
       fx="288.87451"
       fy="284.21545"
       r="86.007607"
       gradientTransform="matrix(0,0.7362892,-0.7441838,2.5259989e-7,500.38306,94.111774)"
       gradientUnits="userSpaceOnUse" />
    <radialGradient
       inkscape:collect="always"
       xlink:href="#linearGradient6197"
       id="radialGradient6282"
       gradientUnits="userSpaceOnUse"
       gradientTransform="matrix(-0.2058883,0,-7.0634431e-8,-0.2080959,163.15398,122.41088)"
       cx="288.87451"
       cy="284.21545"
       fx="288.87451"
       fy="284.21545"
       r="86.007607" />
  </defs>
  <sodipodi:namedview
     id="base"
     pagecolor="#ffffff"
     bordercolor="#666666"
     borderopacity="1.0"
     inkscape:pageopacity="0.0"
     inkscape:pageshadow="2"
     inkscape:zoom="6.0687714"
     inkscape:cx="57.314792"
     inkscape:cy="39.957372"
     inkscape:document-units="px"
     inkscape:current-layer="layer3"
     showgrid="false"
     inkscape:window-width="1280"
     inkscape:window-height="964"
     inkscape:window-x="1276"
     inkscape:window-y="-5" />
  <metadata
     id="metadata6187">
    <rdf:RDF>
      <cc:Work
         rdf:about="">
        <dc:format>image/svg+xml</dc:format>
        <dc:type
           rdf:resource="http://purl.org/dc/dcmitype/StillImage" />
      </cc:Work>
    </rdf:RDF>
  </metadata>
  <g
     inkscape:label="Ebene 1"
     inkscape:groupmode="layer"
     id="layer1"
     transform="translate(-271.48103,-345.94909)" />
  <g
     inkscape:groupmode="layer"
     id="layer3"
     inkscape:label="lol"
     transform="translate(-68.291075,-39.306862)">
    <path
       id="path6192"
       style="fill:url(#radialGradient6282);fill-opacity:1;fill-rule:evenodd;stroke:#000000;stroke-width:0.27962965px;stroke-linecap:butt;stroke-linejoin:miter;stroke-opacity:1"
       d="M 78.906994,63.35714 C 78.906994,63.35714 78.906994,63.222314 78.817132,65.696172 L 78.817132,65.696172 C 78.817132,65.696172 78.817132,65.696172 68.43089,87.267603 C 68.43089,87.267603 68.43089,87.267603 89.203377,64.897231 L 78.817132,85.669721 L 78.817132,85.669721 C 78.817132,85.669721 78.817132,85.669721 103.58433,63.35714 C 78.817132,41.044559 78.817132,41.044559 78.817132,41.044559 L 78.817132,41.044559 L 89.203377,61.817049 C 68.43089,39.446677 68.43089,39.446677 68.43089,39.446677 C 78.817132,61.018108 78.817132,61.018108 78.817132,61.018108 L 78.817132,61.018108 C 78.906994,63.491966 78.906994,63.35714 78.906994,63.35714 z"
       sodipodi:nodetypes="ccccccccccccccc" />
    <path
       style="opacity:1;fill:#00ff00;fill-opacity:1;fill-rule:evenodd;stroke:none;stroke-width:1;stroke-linecap:butt;stroke-linejoin:miter;stroke-miterlimit:4;stroke-dasharray:none;stroke-dashoffset:0;stroke-opacity:1"
       d="M 69.160538,86.181944 C 69.160538,86.159003 71.368211,81.555097 74.066478,75.951036 L 78.972419,65.761837 L 79.023575,64.570972 C 79.061162,63.695976 79.061071,63.058042 79.023233,62.165865 L 78.971735,60.951621 L 74.428582,51.517728 C 71.929847,46.329087 69.754659,41.809103 69.594829,41.473318 C 69.319022,40.893879 69.30954,40.8628 69.408565,40.8628 C 69.488079,40.8628 71.47419,42.975197 77.757257,49.74234 C 82.291651,54.626087 86.120785,58.749669 86.26644,58.905855 L 86.531266,59.189831 L 86.4148,59.760043 C 86.207895,60.773021 86.115031,61.643247 86.085975,62.841441 C 86.049164,64.359517 86.174875,65.774667 86.458722,67.037465 L 86.561481,67.494625 L 77.995851,76.721793 C 68.716355,86.717966 69.160538,86.242369 69.160538,86.181944 L 69.160538,86.181944 z"
       id="path6286" />
  </g>
</svg>
